<?xml version="1.0" encoding="UTF-8" standalone="no" ?>
<!DOCTYPE svg PUBLIC "-//W3C//DTD SVG 1.1//EN" "http://www.w3.org/Graphics/SVG/1.1/DTD/svg11.dtd">
<svg xmlns="http://www.w3.org/2000/svg" xmlns:xlink="http://www.w3.org/1999/xlink" version="1.1" width="1280" height="464.506110794989" viewBox="0 0 1280 464.506110794989" xml:space="preserve">
<desc>Created with Fabric.js 5.3.0</desc>
<defs>
</defs>
<g transform="matrix(1 0 0 1 640 232.2530553974945)" id="background-logo"  >
<rect style="stroke: none; stroke-width: 0; stroke-dasharray: none; stroke-linecap: butt; stroke-dashoffset: 0; stroke-linejoin: miter; stroke-miterlimit: 4; fill: rgb(255,255,255); fill-opacity: 0; fill-rule: nonzero; opacity: 1;"  paint-order="stroke"  x="-799.1462916457735" y="-639.3170333166188" rx="0" ry="0" width="1598.292583291547" height="1278.6340666332376" />
</g>
<g transform="matrix(1.7065673019273686 0 0 1.7065673019273686 192.9564217023687 202.18572586811064)" id="logo-logo"  >
<g style=""  paint-order="stroke"   >
		<g transform="matrix(1.238102751806071 0 0 1.238102751806071 -0.01285519571928262 12.170550050253667)"  >
<linearGradient id="SVGID_162_353187" gradientUnits="userSpaceOnUse" gradientTransform="matrix(1 0 0 1 0 0)"  x1="162.48" y1="199.6883" x2="162.48" y2="95.4995">
<stop offset="0%" style="stop-color:rgb(140,140,140);stop-opacity: 1"/>
<stop offset="55.00000000000001%" style="stop-color:rgb(83,83,83);stop-opacity: 1"/>
<stop offset="98.6%" style="stop-color:rgb(31,31,31);stop-opacity: 1"/>
</linearGradient>
<path style="stroke: none; stroke-width: 1; stroke-dasharray: none; stroke-linecap: butt; stroke-dashoffset: 0; stroke-linejoin: miter; stroke-miterlimit: 4; fill: url(#SVGID_162_353187); fill-rule: nonzero; opacity: 1;"  paint-order="stroke"  transform=" translate(-162.48000000000002, -139.83499999999998)" d="M 217.33 98.58 C 214.04000000000002 96.13 208.66000000000003 96.1 203.03 96.69 C 202.77 90.78 202.12 85.67999999999999 201.36 81.83 C 201.36 89.17999999999999 200.24 107.22999999999999 190.48000000000002 125.13 C 178.46 147.16 146.53000000000003 147.17 134.51000000000002 125.14 C 124.73000000000002 107.24000000000001 123.61000000000001 89.18 123.61000000000001 81.83 C 122.86000000000001 85.64 122.10000000000001 90.74 121.70000000000002 96.66 C 115.48000000000002 95.97999999999999 109.86000000000001 95.94 106.49000000000001 99.06 C 102.42000000000002 102.82000000000001 101.4 110.8 101.25000000000001 118.28 L 101.25000000000001 118.31 C 107.58000000000001 150.16 125.51000000000002 182.91 162.5 197.82999999999998 C 132.96 179.42 123.71000000000001 145.75 122.35 120.71999999999998 C 123.22999999999999 127.47999999999999 124.77 134.46999999999997 127.28 141.29 C 133.21 157.41 145.54 172.20999999999998 162.5 182.78 C 176.58 174 187.31 162.02 193.51 148.88 C 199.26999999999998 136.68 201.89999999999998 123.66 202.79 111.94999999999999 C 203.23 137.26999999999998 195.63 177.17 162.49 197.83999999999997 C 199.48000000000002 182.90999999999997 217.41000000000003 150.14 223.71 118.31999999999998 C 223.55 110.07 222.24 102.22 217.33 98.58 z" stroke-linecap="round" />
</g>
		<g transform="matrix(1.238102751806071 0 0 1.238102751806071 0.12333610697942277 -67.95326953287622)"  >
<path style="stroke: none; stroke-width: 1; stroke-dasharray: none; stroke-linecap: butt; stroke-dashoffset: 0; stroke-linejoin: miter; stroke-miterlimit: 4; fill: rgb(149,149,211); fill-rule: nonzero; opacity: 1;"  paint-order="stroke"  transform=" translate(-162.59, -75.12)" d="M 162.6 62.17 C 189.2 62.17 208.60999999999999 74.4 218.68 82.71000000000001 C 208.9 75.67 191.65 75.36000000000001 162.49 88.07000000000001 C 133.3 75.36000000000001 116.28 75.67 106.5 82.71000000000001 C 116.56 74.41 135.97 62.17 162.6 62.17 z" stroke-linecap="round" />
</g>
		<g transform="matrix(1.238102751806071 0 0 1.238102751806071 0 -32.970218358620855)"  >
<path style="stroke: none; stroke-width: 1; stroke-dasharray: none; stroke-linecap: butt; stroke-dashoffset: 0; stroke-linejoin: miter; stroke-miterlimit: 4; fill: rgb(83,83,83); fill-rule: nonzero; opacity: 1;"  paint-order="stroke"  transform=" translate(-162.49038297968445, -103.37536985781202)" d="M 201.37 96.99 C 198.74 97.3 195.87 97.97 192.78 99.00999999999999 C 183.33 102.19999999999999 175.97 109.71 172.85 119.19 L 171.34 123.78 C 168.54 132.3 156.48000000000002 132.31 153.67000000000002 123.78 L 152.15 119.16 C 149.03 109.69999999999999 141.67000000000002 102.19999999999999 132.23000000000002 99.00999999999999 C 129.13000000000002 97.96 126.26000000000002 97.3 123.62000000000002 96.97999999999999 C 109.01000000000002 95.18999999999998 101.55000000000001 104.07 101.26000000000002 118.38999999999999 C 99.34000000000002 108.73999999999998 98.49000000000002 99.13999999999999 98.49000000000002 90.17999999999998 C 98.49000000000002 90.17999999999998 101.21000000000002 86.95999999999998 106.40000000000002 82.71999999999998 C 116.18000000000002 75.67999999999998 133.32000000000002 72.53999999999999 162.50000000000003 85.24999999999999 C 191.66000000000003 72.53999999999999 208.8 75.67999999999998 218.58000000000004 82.71999999999998 C 223.77000000000004 86.95999999999998 226.49000000000004 90.17999999999998 226.49000000000004 90.17999999999998 C 226.52000000000004 99.13999999999999 225.67000000000004 108.73999999999998 223.72000000000003 118.41999999999997 C 223.44 104.09 216.01 95.2 201.37 96.99 z" stroke-linecap="round" />
</g>
</g>
</g>
<g transform="matrix(2.45891166660238 0 0 2.45891166660238 827.387720748851 190.810948033108)" id="text-logo"  >
<g style=""  paint-order="stroke"   >
		<g transform="matrix(1 0 0 1 0 0)" id="text-logo-path-0"  >
<radialGradient id="SVGID_353189" gradientUnits="userSpaceOnUse" gradientTransform="matrix(1 0 0 1 7.099999999999994 -91.07)"  cx="173.18249999999995" cy="50.54994000000005" r="180.2130034446716" fx="173.18249999999995" fy="50.54994000000005">
<stop offset="20%" style="stop-color:rgb(134,134,134);stop-opacity: 1"/>
<stop offset="100%" style="stop-color:rgb(48,48,48);stop-opacity: 1"/>
</radialGradient>
<filter id="SVGID_353183" y="-35.56755235825128%" height="171.13510471650255%" x="-20%" width="140%" >
	<feGaussianBlur in="SourceAlpha" stdDeviation="0"></feGaussianBlur>
	<feOffset dx="0" dy="14.297240085817968" result="oBlur" ></feOffset>
	<feFlood flood-color="rgb(155,155,221)" flood-opacity="1"/>
	<feComposite in2="oBlur" operator="in" />
	<feMerge>
		<feMergeNode></feMergeNode>
		<feMergeNode in="SourceGraphic"></feMergeNode>
	</feMerge>
</filter>
<path style="stroke: rgb(149,149,211); stroke-width: 2.042462869402567; stroke-dasharray: none; stroke-linecap: butt; stroke-dashoffset: 0; stroke-linejoin: miter; stroke-miterlimit: 4; fill: url(#SVGID_353189); fill-rule: nonzero; opacity: 1;filter: url(#SVGID_353183);"  paint-order="stroke"  transform=" translate(-180.21499999999997, 45.15)" d="M 77.53 -90.3 L 47.99 -24.51 L 18.45 -90.3 L 7.1 -90.3 L 47.99 0.77 L 88.88 -90.3 Z M 128.87 0 L 139.19 0 L 139.19 -90.3 L 128.87 -90.3 Z M 179.18 0 L 189.5 0 L 189.5 -38.7 L 217.24 -38.7 C 231.3 -38.7 243.17 -50.44 243.17 -64.5 C 243.17 -78.69 231.3 -90.3 217.24 -90.3 L 179.18 -90.3 L 179.18 -79.98 L 217.24 -79.98 C 225.62 -79.98 232.85 -73.01 232.85 -64.5 C 232.85 -56.12 225.62 -49.02 217.24 -49.02 L 179.18 -49.02 Z M 287.54 -10.32 L 312.44 -65.79 L 337.34 -10.32 Z M 271.55 0 L 353.33 0 L 312.44 -91.07 Z" stroke-linecap="round" />
</g>
</g>
</g>
<g transform="matrix(2.45891166660238 0 0 2.45891166660238 647.9121669831922 437.4235114813692)" id="tagline-18ab0ffd-4071-41b6-a126-fa5a08769ae8-logo"  >
<g style=""  paint-order="stroke"   >
		<g transform="matrix(1 0 0 1 -5.684342e-14 0)" id="tagline-18ab0ffd-4071-41b6-a126-fa5a08769ae8-logo-path-0"  >
<filter id="SVGID_353186" y="-33.62830424252711%" height="167.25660848505422%" x="-20%" width="140%" >
	<feGaussianBlur in="SourceAlpha" stdDeviation="0"></feGaussianBlur>
	<feOffset dx="0" dy="2.3590594643814415" result="oBlur" ></feOffset>
	<feFlood flood-color="rgb(188,204,212)" flood-opacity="1"/>
	<feComposite in2="oBlur" operator="in" />
	<feMerge>
		<feMergeNode></feMergeNode>
		<feMergeNode in="SourceGraphic"></feMergeNode>
	</feMerge>
</filter>
<path style="stroke: rgb(255,255,255); stroke-width: 0; stroke-dasharray: none; stroke-linecap: butt; stroke-dashoffset: 0; stroke-linejoin: miter; stroke-miterlimit: 4; fill: rgb(124,124,124); fill-rule: nonzero; opacity: 1;filter: url(#SVGID_353186);"  paint-order="stroke"  transform=" translate(-258.45, 8.655)" d="M 1.39 0 L 15.8 0 C 16.59 0 17.27 -0.28 17.84 -0.84 C 18.39 -1.41 18.67 -2.09 18.67 -2.88 L 18.67 -14.4 C 18.67 -15.2 18.39 -15.88 17.84 -16.44 C 17.27 -17 16.59 -17.29 15.8 -17.29 L 1.39 -17.29 Z M 3.34 -2.88 L 3.34 -14.4 C 3.34 -14.92 3.76 -15.34 4.28 -15.34 L 15.8 -15.34 C 16.3 -15.34 16.72 -14.92 16.72 -14.4 L 16.72 -2.88 C 16.72 -2.37 16.31 -1.95 15.8 -1.95 L 4.28 -1.95 C 3.76 -1.95 3.34 -2.37 3.34 -2.88 Z M 31.11 0 L 46.87 0 L 46.87 -1.95 L 33.05 -1.95 L 33.05 -7.65 L 44.16 -7.65 L 44.16 -9.62 L 33.05 -9.62 L 33.05 -15.34 L 46.87 -15.34 L 46.87 -17.29 L 31.11 -17.29 Z M 59 -2.88 C 59 -2.07 59.28 -1.39 59.85 -0.84 C 60.41 -0.28 61.09 0 61.88 0 L 73.4 0 C 74.21 0 74.89 -0.28 75.45 -0.84 C 76.01 -1.41 76.29 -2.09 76.29 -2.88 L 76.29 -6.74 C 76.29 -7.55 76.01 -8.23 75.44 -8.79 C 74.88 -9.34 74.2 -9.62 73.4 -9.62 L 61.88 -9.62 C 61.37 -9.62 60.95 -10.02 60.95 -10.54 L 60.95 -14.4 C 60.95 -14.92 61.37 -15.34 61.88 -15.34 L 73.4 -15.34 C 73.92 -15.34 74.34 -14.92 74.34 -14.4 L 74.34 -13.72 L 76.29 -13.72 L 76.29 -14.4 C 76.29 -15.2 76.01 -15.88 75.44 -16.44 C 74.88 -17 74.2 -17.29 73.4 -17.29 L 61.88 -17.29 C 61.09 -17.29 60.41 -17 59.85 -16.44 C 59.28 -15.88 59 -15.2 59 -14.4 L 59 -10.54 C 59 -9.74 59.28 -9.06 59.85 -8.5 C 60.41 -7.93 61.09 -7.65 61.88 -7.65 L 73.4 -7.65 C 73.92 -7.65 74.34 -7.25 74.34 -6.74 L 74.34 -2.88 C 74.34 -2.37 73.92 -1.95 73.4 -1.95 L 61.88 -1.95 C 61.37 -1.95 60.95 -2.37 60.95 -2.88 L 60.95 -3.55 L 59 -3.55 Z M 88.57 0 L 90.52 0 L 90.52 -17.29 L 88.57 -17.29 Z M 103.52 -14.4 L 103.52 -2.88 C 103.52 -2.07 103.8 -1.39 104.36 -0.84 C 104.91 -0.28 105.59 0 106.39 0 L 117.91 0 C 118.72 0 119.4 -0.28 119.96 -0.84 C 120.51 -1.41 120.79 -2.09 120.79 -2.88 L 120.79 -9.12 L 114.58 -9.12 L 114.58 -7.15 L 118.85 -7.15 L 118.85 -2.88 C 118.85 -2.37 118.42 -1.95 117.91 -1.95 L 106.39 -1.95 C 105.89 -1.95 105.46 -2.37 105.46 -2.88 L 105.46 -14.4 C 105.46 -14.92 105.87 -15.34 106.39 -15.34 L 117.91 -15.34 C 118.42 -15.34 118.85 -14.92 118.85 -14.4 L 118.85 -13.7 L 120.79 -13.7 L 120.79 -14.4 C 120.79 -15.2 120.51 -15.88 119.95 -16.44 C 119.39 -17 118.71 -17.29 117.91 -17.29 L 106.39 -17.29 C 105.59 -17.29 104.91 -17 104.36 -16.44 C 103.8 -15.88 103.52 -15.2 103.52 -14.4 Z M 133.12 0 L 135.07 0 L 135.07 -15.07 L 147.74 0 L 150.4 0 L 150.4 -17.29 L 148.45 -17.29 L 148.45 -2.2 L 135.78 -17.29 L 133.12 -17.29 Z M 179.07 0 L 193.47 0 C 194.27 0 194.95 -0.28 195.51 -0.84 C 196.06 -1.41 196.34 -2.09 196.34 -2.88 L 196.34 -6.91 C 196.34 -7.75 196.03 -8.45 195.38 -9.05 L 195.29 -9.46 C 195.5 -9.87 195.61 -10.29 195.61 -10.72 L 195.61 -14.4 C 195.61 -15.2 195.33 -15.88 194.76 -16.44 C 194.2 -17 193.52 -17.29 192.72 -17.29 L 179.07 -17.29 Z M 181.02 -2.88 L 181.02 -6.91 C 181.02 -7.43 181.44 -7.85 181.95 -7.85 L 193.47 -7.85 C 193.98 -7.85 194.41 -7.43 194.41 -6.91 L 194.41 -2.88 C 194.41 -2.37 193.99 -1.95 193.47 -1.95 L 181.95 -1.95 C 181.44 -1.95 181.02 -2.37 181.02 -2.88 Z M 181.02 -10.72 L 181.02 -14.4 C 181.02 -14.92 181.44 -15.34 181.95 -15.34 L 192.72 -15.34 C 193.24 -15.34 193.64 -14.92 193.64 -14.4 L 193.64 -10.72 C 193.64 -10.22 193.24 -9.8 192.72 -9.8 L 181.95 -9.8 C 181.44 -9.8 181.02 -10.21 181.02 -10.72 Z M 208.61 -2.88 C 208.61 -2.07 208.89 -1.39 209.45 -0.84 C 210 -0.28 210.68 0 211.48 0 L 223 0 C 223.81 0 224.49 -0.28 225.05 -0.84 C 225.6 -1.41 225.88 -2.09 225.88 -2.88 L 225.88 -17.29 L 223.94 -17.29 L 223.94 -2.88 C 223.94 -2.37 223.51 -1.95 223 -1.95 L 211.48 -1.95 C 210.97 -1.95 210.54 -2.37 210.54 -2.88 L 210.54 -17.29 L 208.61 -17.29 Z M 238.24 0 L 240.18 0 L 240.18 -17.29 L 238.24 -17.29 Z M 253.21 0 L 270.48 0 L 270.48 -1.95 L 255.15 -1.95 L 255.15 -17.31 L 253.21 -17.31 Z M 281.62 0 L 296.02 0 C 296.82 0 297.5 -0.28 298.06 -0.84 C 298.61 -1.41 298.89 -2.09 298.89 -2.88 L 298.89 -14.4 C 298.89 -15.2 298.61 -15.88 298.06 -16.44 C 297.5 -17 296.82 -17.29 296.02 -17.29 L 281.62 -17.29 Z M 283.56 -2.88 L 283.56 -14.4 C 283.56 -14.92 283.98 -15.34 284.5 -15.34 L 296.02 -15.34 C 296.52 -15.34 296.95 -14.92 296.95 -14.4 L 296.95 -2.88 C 296.95 -2.37 296.53 -1.95 296.02 -1.95 L 284.5 -1.95 C 283.98 -1.95 283.56 -2.37 283.56 -2.88 Z M 327.55 0 L 343.31 0 L 343.31 -1.95 L 329.5 -1.95 L 329.5 -7.65 L 340.61 -7.65 L 340.61 -9.62 L 329.5 -9.62 L 329.5 -15.34 L 343.31 -15.34 L 343.31 -17.29 L 327.55 -17.29 Z M 355.33 0 L 357.83 0 L 363.85 -7.13 L 369.85 0 L 372.37 0 L 365.1 -8.64 L 372.35 -17.29 L 369.85 -17.29 L 363.85 -10.15 L 357.83 -17.29 L 355.33 -17.29 L 362.58 -8.64 Z M 384.8 0 L 400.56 0 L 400.56 -1.95 L 386.74 -1.95 L 386.74 -7.65 L 397.85 -7.65 L 397.85 -9.62 L 386.74 -9.62 L 386.74 -15.34 L 400.56 -15.34 L 400.56 -17.29 L 384.8 -17.29 Z M 412.82 -14.4 L 412.82 -2.88 C 412.82 -2.07 413.1 -1.39 413.66 -0.84 C 414.21 -0.28 414.89 0 415.69 0 L 430.05 0 L 430.05 -1.95 L 415.69 -1.95 C 415.19 -1.95 414.76 -2.37 414.76 -2.88 L 414.76 -14.4 C 414.76 -14.92 415.18 -15.34 415.69 -15.34 L 430.05 -15.34 L 430.05 -17.29 L 415.69 -17.29 C 414.89 -17.29 414.21 -17 413.66 -16.44 C 413.1 -15.88 412.82 -15.2 412.82 -14.4 Z M 442.19 -2.88 C 442.19 -2.07 442.47 -1.39 443.04 -0.84 C 443.59 -0.28 444.27 0 445.06 0 L 456.58 0 C 457.39 0 458.07 -0.28 458.63 -0.84 C 459.18 -1.41 459.46 -2.09 459.46 -2.88 L 459.46 -17.29 L 457.52 -17.29 L 457.52 -2.88 C 457.52 -2.37 457.1 -1.95 456.58 -1.95 L 445.06 -1.95 C 444.56 -1.95 444.12 -2.37 444.12 -2.88 L 444.12 -17.29 L 442.19 -17.29 Z M 470.93 -15.34 L 478.61 -15.34 L 478.61 0 L 480.55 0 L 480.55 -15.34 L 488.22 -15.34 L 488.22 -17.29 L 470.93 -17.29 Z M 499.75 0 L 515.51 0 L 515.51 -1.95 L 501.7 -1.95 L 501.7 -7.65 L 512.81 -7.65 L 512.81 -9.62 L 501.7 -9.62 L 501.7 -15.34 L 515.51 -15.34 L 515.51 -17.29 L 499.75 -17.29 Z" stroke-linecap="round" />
</g>
</g>
</g>
<g transform="matrix(1.535658482310052 0 0 1.5356584823100523 190.95367300935038 191.95731028875653)" id="shape-895e08d0-cc91-439c-8104-bf2cabde44e5"  >
<g style=""  paint-order="stroke"   >
		<g transform="matrix(1 0 0 1 0 0)" id="path-01"  >
<path style="stroke: none; stroke-width: 0; stroke-dasharray: none; stroke-linecap: butt; stroke-dashoffset: 0; stroke-linejoin: miter; stroke-miterlimit: 4; fill: rgb(149,149,211); fill-rule: nonzero; opacity: 1;"  paint-order="stroke"  transform=" translate(-124.34644529835084, -124.99999500000001)" d="M 232.7152 184.57784 C 233.66515 183.06007 234.16442 182.26216000000002 234.16442 182.26216000000002 C 234.16442 182.26216000000002 233.71705 183.08942000000002 232.86608 184.66339000000002 C 232.43831 185.45127000000002 231.90906 186.42601000000002 231.28387 187.57759000000001 C 230.97011 188.15391000000002 230.63219 188.77463 230.27101000000002 189.43794000000003 C 229.88450000000003 190.08622000000003 229.44098000000002 190.75669000000002 228.98797000000002 191.47834000000003 C 228.07149 192.91772000000003 227.05290000000002 194.51747000000003 225.93819000000002 196.26828000000003 C 224.75028000000003 197.96969000000004 223.38321000000002 199.76596000000004 221.95045000000002 201.72654000000003 C 218.99777000000003 205.57503000000003 215.40675000000002 209.80332000000004 211.06248000000002 214.12647000000004 C 202.46889000000002 222.85188000000005 190.58443000000003 231.75306000000003 175.82174000000003 238.69544000000005 C 168.38644000000002 242.00770000000006 160.31324000000004 244.97380000000004 151.63722000000004 246.92292000000003 C 142.96094000000005 248.82372000000004 133.78574000000003 249.91265000000004 124.35719000000005 249.99999000000003 C 114.92864000000004 249.91265 105.75354000000004 248.82371000000003 97.07725000000005 246.92328000000003 C 88.40115000000004 244.97380000000004 80.32786000000004 242.00841000000003 72.89264000000006 238.69580000000002 C 58.129870000000054 231.75377000000003 46.245320000000056 222.85224000000002 37.65173000000006 214.12718 C 33.307370000000056 209.80403 29.71626000000006 205.57574 26.763580000000058 201.72725 C 25.33082000000006 199.76667 23.963750000000058 197.97039999999998 22.77584000000006 196.26899 C 21.66113000000006 194.51854 20.64245000000006 192.91843 19.72597000000006 191.47941 C 19.27305000000006 190.75775 18.829440000000062 190.08692 18.44302000000006 189.43901 C 18.08174000000006 188.77534 17.74382000000006 188.15463 17.43007000000006 187.57865999999999 C 16.80488000000006 186.42708 16.27563000000006 185.45234 15.847860000000061 184.66446 C 14.99680000000006 183.09047999999999 14.549430000000061 182.26287 14.549430000000061 182.26287 C 14.549430000000061 182.26287 15.04879000000006 183.06078 15.998650000000062 184.57890999999998 C 16.471880000000063 185.3378 17.05733000000006 186.27674 17.749010000000062 187.38608 C 18.09391000000006 187.94056999999998 18.465300000000063 188.53766 18.862370000000062 189.17627 C 19.298190000000062 189.78947 19.762300000000064 190.44275 20.253870000000063 191.13433999999998 C 21.239980000000063 192.51287 22.335980000000063 194.04531999999998 23.535430000000062 195.72239 C 24.80227000000006 197.34790999999998 26.248900000000063 199.05935 27.758350000000064 200.92685 C 30.864510000000063 204.5892 34.59764000000006 208.59519 39.04563000000007 212.66848 C 47.85042000000007 220.89810999999997 59.77444000000007 229.17570999999998 74.28440000000006 235.58865999999998 C 81.59594000000006 238.63816999999997 89.47691000000006 241.36908999999997 97.90915000000007 243.15211999999997 C 106.34282000000007 244.88574999999997 115.22529000000007 245.87694999999997 124.35717000000007 245.96465999999998 C 133.48905000000008 245.87695999999997 142.37152000000006 244.88538999999997 150.80519000000007 243.15176999999997 C 159.23743000000007 241.36909999999997 167.11831000000006 238.63781999999998 174.42985000000007 235.58830999999998 C 188.93981000000008 229.17499999999998 200.86374000000006 220.89739999999998 209.6684400000001 212.66777 C 214.1164300000001 208.59447999999998 217.84957000000009 204.58812999999998 220.9557200000001 200.92613999999998 C 222.46508000000009 199.05862999999997 223.91171000000008 197.34684 225.1785500000001 195.72131999999996 C 226.3779100000001 194.04460999999998 227.47400000000007 192.51215999999997 228.4601100000001 191.13362999999995 C 228.9516000000001 190.44203999999996 229.4157000000001 189.78874999999996 229.8515200000001 189.17555999999996 C 230.24859000000012 188.53694999999996 230.6199800000001 187.93985999999995 230.9648800000001 187.38536999999997 C 231.6564700000001 186.27602999999996 232.2419200000001 185.33708999999996 232.7151500000001 184.57784999999996 Z M 248.52135 102.33236 C 248.41665 101.18329 248.25986 99.77971 248.03962 98.06541 C 247.95809000000003 97.20235 247.76157 96.28274 247.52433000000002 95.28366 C 247.29273000000003 94.28099999999999 247.04224000000002 93.19636 246.77108 92.02295 C 246.18437 89.684 245.67579 86.93016999999999 244.54364 83.91574 C 243.45605 80.89308 242.4916 77.35817 240.68951 73.63282 C 240.02647000000002 72.13401999999999 239.3185 70.53390999999999 238.56910000000002 68.83966 C 238.38072000000003 68.41654 238.18966000000003 67.98769999999999 237.99609 67.55313 C 237.76950000000002 67.13503 237.53986 66.71119 237.30736000000002 66.28199 C 236.842 65.42358999999999 236.36493000000002 64.54334999999999 235.87666000000002 63.642709999999994 C 234.87856000000002 61.85430999999999 233.92440000000002 59.92952999999999 232.76388000000003 58.02837999999999 C 231.54519000000002 56.162299999999995 230.27969000000002 54.22391999999999 228.97186000000002 52.22109999999999 C 223.50716000000003 44.39596999999999 216.62267000000003 35.94940999999999 207.85797000000002 28.480099999999993 C 199.13945 20.997539999999994 188.82153000000002 14.299289999999994 177.55313 9.355069999999994 C 166.30209000000002 4.382569999999994 154.14298000000002 1.2027599999999943 142.21852 -5.329070518200751e-15 C 153.97886 2.3414499999999947 165.69275000000002 6.274419999999995 176.46921 11.668959999999995 C 187.2591 17.038449999999994 197.07783 23.839079999999996 205.41163 31.256479999999996 C 213.78642 38.66028 220.39231 46.88061 225.68 54.46625999999999 C 226.94693 56.40607999999999 228.17296000000002 58.28324999999999 229.35353 60.09096999999999 C 230.47951 61.93126999999999 231.40351 63.795199999999994 232.37485 65.52488999999998 C 232.85014 66.39617999999999 233.31451 67.24705999999999 233.76752000000002 68.07753999999998 C 233.99411 68.49241999999998 234.21793000000002 68.90228999999998 234.43871000000001 69.30678999999998 C 234.62664 69.72775999999998 234.81207 70.14263999999997 234.99499 70.55214999999998 C 235.72220000000002 72.19234999999998 236.40922 73.74197999999998 237.05267 75.19316999999998 C 238.80366 78.79895999999998 239.75415 82.21501999999998 240.8608 85.12707999999998 C 242.01202 88.03053999999997 242.57250000000002 90.68127999999997 243.23877000000002 92.92750999999998 C 243.56013000000002 94.05366999999998 243.85707000000002 95.09427999999998 244.13163000000003 96.05648999999998 C 244.42194000000003 97.01440999999998 244.67789000000002 97.89499999999998 244.82456000000002 98.72189999999998 C 245.17510000000001 100.36352999999998 245.48528000000002 101.70410999999997 245.76216000000002 102.79840999999998 C 246.87060000000002 107.17596999999998 247.44514 107.60230999999997 247.98665000000003 107.53142999999997 C 248.52798 107.46054999999997 248.93947000000003 106.92861999999997 248.52136000000002 102.33233999999997 Z M 63.25604 16.04116 C 64.63653 15.221060000000001 65.99868 14.411700000000002 67.33944 13.614870000000002 C 68.69139 12.837730000000002 70.10338 12.229540000000002 71.44548999999999 11.545830000000002 C 74.16530999999999 10.253930000000002 76.71099 8.829940000000002 79.31885999999999 7.918920000000002 C 81.88931999999998 6.921270000000002 84.3123 5.920040000000002 86.60837999999998 5.076670000000002 C 88.95063999999998 4.368260000000002 91.12804999999999 3.709600000000002 93.11296999999999 3.109290000000002 C 94.10676999999998 2.808240000000002 95.05233999999999 2.5218700000000016 95.94617999999998 2.250890000000002 C 96.85782999999998 2.0525800000000016 97.71685999999998 1.8657200000000018 98.51959999999998 1.691390000000002 C 100.12757999999998 1.345950000000002 101.51021999999998 1.048840000000002 102.63906999999998 0.806140000000002 C 104.89899999999997 0.319310000000002 106.14283999999998 0.051190000000001956 106.14283999999998 0.051190000000001956 C 106.14283999999998 0.051190000000001956 104.88816999999997 0.25809000000000193 102.60863999999998 0.633960000000002 C 101.46672999999998 0.822970000000002 100.06815999999998 1.054210000000002 98.44155999999998 1.3234000000000021 C 97.62754999999999 1.4612200000000022 96.75661999999998 1.608340000000002 95.83216999999998 1.764410000000002 C 94.92373999999998 1.994580000000002 93.96277999999998 2.237640000000002 92.95277999999998 2.493590000000002 C 90.92892999999998 3.007270000000002 88.70873999999998 3.570710000000002 86.32047999999998 4.176740000000002 C 83.97329999999998 4.921670000000002 81.48990999999998 5.821590000000002 78.84892999999998 6.719010000000003 C 76.17062999999999 7.529090000000003 73.54467999999999 8.853200000000003 70.73438999999998 10.049160000000002 C 69.34717999999998 10.685260000000003 67.88748999999997 11.246560000000002 66.48560999999998 11.978240000000003 C 65.09329999999999 12.731760000000003 63.67879999999998 13.497090000000004 62.24532999999998 14.272800000000004 C 50.77610999999998 20.479920000000003 39.14087999999998 29.422620000000002 29.71644999999998 39.86269 C 20.21881999999998 50.24513 13.03712999999998 62.01826 8.532489999999981 72.33984000000001 C 6.082219999999982 77.43047000000001 4.814299999999982 82.07114000000001 3.472909999999981 85.89206000000001 C 2.362409999999981 89.78852000000002 1.720219999999981 93.06068000000002 1.103539999999981 95.70426000000002 C 0.7668699999999811 97.02157000000003 0.6811399999999811 98.23723000000003 0.5397399999999811 99.30181000000002 C 0.4258199999999811 100.35387000000001 0.3248699999999811 101.28637000000002 0.23456999999998113 102.12007000000001 C 0.07804999999998113 103.75275 0.010129999999981126 104.91363000000001 0.000999999999981127 105.72729000000001 C -0.03417000000001887 108.97475000000001 0.8657599999999811 106.71492 0.8657599999999811 106.71492 C 0.8657599999999811 106.71492 0.9792399999999811 109.07964000000001 2.017779999999981 106.01188 C 2.277129999999981 105.24691 2.593839999999981 104.14509000000001 2.979539999999981 102.5883 C 3.166399999999981 101.79254 3.375449999999981 100.90192 3.611259999999981 99.89711 C 3.854949999999981 98.87977 4.035629999999981 97.71603 4.457309999999981 96.45634 C 5.243939999999981 93.92694999999999 6.016429999999981 90.79118 7.196019999999981 87.04793 C 8.606579999999981 83.38020999999999 9.88165999999998 78.91064999999999 12.258189999999981 73.98684 C 16.617589999999982 64.0021 23.33382999999998 52.49315 32.29262999999998 42.13792 C 41.17688999999998 31.73401 52.21967999999998 22.58941 63.25602999999998 16.041150000000002 Z" stroke-linecap="round" />
</g>
</g>
</g>
</svg>